<svg width="76" height="70" viewBox="0 0 76 70" fill="none" xmlns="http://www.w3.org/2000/svg">
<path d="M14.176 64V54.2H18.726C19.8553 54.2 20.7093 54.4893 21.288 55.068C21.736 55.516 21.96 56.0807 21.96 56.762C21.96 57.686 21.5307 58.3907 20.672 58.876C21.2787 59.1093 21.736 59.4173 22.044 59.8C22.352 60.1733 22.506 60.6773 22.506 61.312C22.506 62.1893 22.1793 62.8567 21.526 63.314C20.8727 63.7713 19.9767 64 18.838 64H14.176ZM16.276 58.162H18.264C19.3 58.162 19.818 57.8073 19.818 57.098C19.818 56.7713 19.6967 56.524 19.454 56.356C19.2113 56.1787 18.8613 56.09 18.404 56.09H16.276V58.162ZM16.276 62.11H18.838C19.8553 62.11 20.364 61.746 20.364 61.018C20.364 60.3087 19.832 59.954 18.768 59.954H16.276V62.11ZM24.2795 64V54.2H28.8295C29.9588 54.2 30.8128 54.4893 31.3915 55.068C31.8395 55.516 32.0635 56.0807 32.0635 56.762C32.0635 57.686 31.6342 58.3907 30.7755 58.876C31.3822 59.1093 31.8395 59.4173 32.1475 59.8C32.4555 60.1733 32.6095 60.6773 32.6095 61.312C32.6095 62.1893 32.2828 62.8567 31.6295 63.314C30.9762 63.7713 30.0802 64 28.9415 64H24.2795ZM26.3795 58.162H28.3675C29.4035 58.162 29.9215 57.8073 29.9215 57.098C29.9215 56.7713 29.8002 56.524 29.5575 56.356C29.3148 56.1787 28.9648 56.09 28.5075 56.09H26.3795V58.162ZM26.3795 62.11H28.9415C29.9588 62.11 30.4675 61.746 30.4675 61.018C30.4675 60.3087 29.9355 59.954 28.8715 59.954H26.3795V62.11ZM34.383 64V54.2H41.775V56.118H36.525V58.106H41.145V60.024H36.525V62.082H41.845V64H34.383ZM43.7619 64V54.2H47.7659C48.9233 54.2 49.8379 54.5127 50.5099 55.138C51.1819 55.7633 51.5179 56.5893 51.5179 57.616C51.5179 58.708 51.1446 59.5573 50.3979 60.164C49.6513 60.7613 48.7039 61.06 47.5559 61.06H45.9179V64H43.7619ZM45.9179 59.142H47.6259C48.1579 59.142 48.5733 59.002 48.8719 58.722C49.1799 58.442 49.3339 58.078 49.3339 57.63C49.3339 57.154 49.1799 56.79 48.8719 56.538C48.5639 56.2767 48.1346 56.146 47.5839 56.146H45.9179V59.142ZM52.3715 64L55.7875 59.016L52.5115 54.2H55.0315L57.0895 57.378L59.1615 54.2H61.6115L58.3355 58.988L61.7515 64H59.2315L57.0335 60.64L54.8215 64H52.3715Z" fill="#F20505"/>
<rect x="1" y="1" width="74" height="38" rx="3" stroke="#F20505" stroke-width="2"/>
<path d="M33.9091 18.2143H42.0909V30H33.9091V18.2143Z" fill="#F20505"/>
<path d="M29 18.2143H33.9091H47L38 10L29 18.2143Z" fill="#F20505"/>
</svg>
