<svg width="84" height="84" viewBox="0 0 84 84" fill="none" xmlns="http://www.w3.org/2000/svg">
<path fill-rule="evenodd" clip-rule="evenodd" d="M77.3486 42.2091L80.7294 38.8268C82.8391 36.7173 84 33.9136 84 30.9308C84 27.9488 82.8391 25.1452 80.7302 23.0356C78.6205 20.9269 75.8167 19.7651 72.8336 19.7651C69.8514 19.7651 67.0477 20.9269 64.9379 23.0356L45.7631 42.2082L64.9379 61.3817C67.0477 63.4904 69.8514 64.6513 72.8336 64.6513C75.8167 64.6513 78.6205 63.4904 80.7302 61.3817C82.8391 59.2722 84 56.4685 84 53.4848C84 50.5028 82.8391 47.6992 80.7302 45.5896L77.3486 42.2091ZM19.0583 23.0356C16.9486 20.9269 14.1448 19.7651 11.1626 19.7651C8.17951 19.7651 5.37483 20.9269 3.2651 23.0356C-1.08837 27.3888 -1.08837 34.4737 3.2651 38.8268L6.64847 42.2091L3.2651 45.5905C-1.08837 49.9436 -1.08837 57.0277 3.2651 61.3817C5.37483 63.4904 8.17951 64.6513 11.1626 64.6513C14.1448 64.6513 16.9486 63.4904 19.0583 61.3817L38.2331 42.2082L19.0583 23.0356Z" fill="white"/>
<path fill-rule="evenodd" clip-rule="evenodd" d="M42.2053 38.2352L61.3801 19.0626C65.7336 14.7076 65.7336 7.6245 61.3801 3.27043C59.2704 1.16174 56.4666 0 53.4826 0C50.5004 0 47.6966 1.16174 45.5869 3.27043L42.2062 6.65269L38.8237 3.27043C36.714 1.16174 33.9093 0 30.9271 0C27.9449 0 25.1411 1.16174 23.0314 3.27043C18.677 7.6245 18.677 14.7076 23.0314 19.0626L42.2053 38.2352ZM42.2053 45.7657L23.0314 64.9383C18.677 69.2915 18.677 76.3764 23.0314 80.7296C25.1411 82.8383 27.9449 84 30.9271 84C33.9093 84 36.714 82.8383 38.8237 80.7296L42.2062 77.3482L45.5869 80.7296C47.6966 82.8383 50.5004 84 53.4826 84C56.4666 84 59.2704 82.8383 61.3801 80.7296C65.7336 76.3764 65.7336 69.2915 61.3801 64.9383L42.2053 45.7657Z" fill="#F20505"/>
</svg>
