<svg width="38" height="38" viewBox="0 0 38 38" fill="none" xmlns="http://www.w3.org/2000/svg">
<path fill-rule="evenodd" clip-rule="evenodd" d="M34.9911 19.0944L36.5204 17.5643C37.4748 16.61 38 15.3417 38 13.9923C38 12.6433 37.4748 11.375 36.5208 10.4206C35.5664 9.46671 34.298 8.94116 32.9486 8.94116C31.5995 8.94116 30.3311 9.46671 29.3767 10.4206L20.7024 19.094L29.3767 27.7677C30.3311 28.7217 31.5995 29.2468 32.9486 29.2468C34.298 29.2468 35.5664 28.7217 36.5208 27.7677C37.4748 26.8134 38 25.5451 38 24.1953C38 22.8463 37.4748 21.578 36.5208 20.6236L34.9911 19.0944ZM8.62161 10.4206C7.66721 9.46671 6.39883 8.94116 5.04974 8.94116C3.70025 8.94116 2.43147 9.46671 1.47707 10.4206C-0.492357 12.3899 -0.492357 15.595 1.47707 17.5643L3.00764 19.0944L1.47707 20.624C-0.492357 22.5933 -0.492357 25.798 1.47707 27.7677C2.43147 28.7217 3.70025 29.2468 5.04974 29.2468C6.39883 29.2468 7.66721 28.7217 8.62161 27.7677L17.2959 19.094L8.62161 10.4206Z" fill="white"/>
<path fill-rule="evenodd" clip-rule="evenodd" d="M19.0927 17.2969L27.767 8.62355C29.7364 6.65345 29.7364 3.44918 27.767 1.47948C26.8126 0.525547 25.5442 0 24.1943 0C22.8452 0 21.5769 0.525547 20.6225 1.47948L19.0931 3.00955L17.5629 1.47948C16.6085 0.525547 15.3397 0 13.9906 0C12.6416 0 11.3732 0.525547 10.4188 1.47948C8.44895 3.44918 8.44895 6.65345 10.4188 8.62355L19.0927 17.2969ZM19.0927 20.7035L10.4188 29.3768C8.44895 31.3461 8.44895 34.5512 10.4188 36.5205C11.3732 37.4745 12.6416 38 13.9906 38C15.3397 38 16.6085 37.4745 17.5629 36.5205L19.0931 34.9909L20.6225 36.5205C21.5769 37.4745 22.8452 38 24.1943 38C25.5442 38 26.8126 37.4745 27.767 36.5205C29.7364 34.5512 29.7364 31.3461 27.767 29.3768L19.0927 20.7035Z" fill="#F20505"/>
</svg>
